<?xml version="1.0" encoding="UTF-8"?><svg id="Layer_1" xmlns="http://www.w3.org/2000/svg" viewBox="0 0 95.32 82.72"><defs><style>.cls-1{fill:#228ab6;}.cls-1,.cls-2,.cls-3,.cls-4{stroke-width:0px;}.cls-2{fill:#9adbf9;}.cls-3{fill:#3fa9f5;}.cls-4{fill:#fff;}</style></defs><path class="cls-4" d="M14.53,42.66c0-1.17,75,0,75,0"/><path class="cls-3" d="M19.71,45.69c-.54.95-3.1,3.13-4.35,2.78.2.06.62-.07.83-.07.97.02,1.96-.09,2.92-.12,3.08-.09,6.17-.11,9.25-.13,8.39-.04,16.77.01,25.16.08,12,.1,24.01.24,36.01.43,7.72.12,7.73-11.88,0-12-13.16-.21-26.33-.36-39.49-.46-8.59-.06-17.18-.12-25.77-.02-4.35.05-12.34-1.06-14.92,3.45-3.84,6.72,6.53,12.77,10.36,6.06h0Z"/><path class="cls-4" d="M6.03,41.48S41.72,6.23,40.57,6.23"/><path class="cls-2" d="M10.27,45.73c6.04-5.97,12.06-11.96,18.05-17.97,3.97-3.98,7.93-7.97,11.83-12.03,1.97-2.05,5.64-4.94,6.23-7.88s-.42-5.18-2.76-6.78l-.03-.02c-6.39-4.38-12.39,6.02-6.06,10.36l.03.02-2.76-6.78c.16-.79,1.4-2.12.85-1.7-.46.35-.86.96-1.26,1.39-1.32,1.43-2.68,2.83-4.03,4.23-3.94,4.06-7.93,8.08-11.92,12.08-5.53,5.55-11.09,11.08-16.66,16.58s2.98,13.92,8.49,8.49h0Z"/><path class="cls-4" d="M40.6,76.73S4.9,41.48,6.05,41.48"/><path class="cls-1" d="M44.84,72.49c-5.58-5.51-11.13-11.03-16.66-16.58-3.9-3.91-7.8-7.83-11.65-11.8-1.39-1.43-2.78-2.86-4.13-4.32-.43-.46-.84-1.07-1.33-1.46-.94-.76.59.85.74,1.58l-2.76,6.78.03-.02c6.33-4.34.34-14.74-6.06-10.36l-.03.02c-2.35,1.61-3.32,4-2.76,6.78s4.07,5.63,5.99,7.62c3.97,4.14,8.02,8.21,12.07,12.28,5.99,6.02,12.01,12.01,18.05,17.97,5.5,5.43,13.99-3.05,8.49-8.49h0Z"/></svg>